<svg width="14" height="14" viewBox="0 0 14 14" fill="none" xmlns="http://www.w3.org/2000/svg"><path fill-rule="evenodd" clip-rule="evenodd" d="M10.207 11.667c.29-.261.442-.63.556-1.03.114-.402.213-.929.335-1.583l.17-.905.01-.053.003-.015.01-.01.038-.038.908-.908c.264-.264.485-.485.65-.68.173-.203.316-.413.398-.665a1.93 1.93 0 0 0 0-1.19 2 2 0 0 0-.398-.665 13 13 0 0 0-.65-.68l-1.482-1.482a13 13 0 0 0-.68-.65 2 2 0 0 0-.665-.4 1.93 1.93 0 0 0-1.19 0 2 2 0 0 0-.665.398c-.195.166-.416.387-.68.651l-.908.908-.038.037-.01.01-.016.004-.052.01-.905.17c-.654.122-1.181.22-1.582.335-.401.114-.77.266-1.031.555-.38.42-.555.986-.479 1.547.052.387.27.72.537 1.041s.646.7 1.117 1.17l1.1 1.1-2.8 2.799a.525.525 0 0 0 .743.742L5.35 9.392l1.1 1.1c.47.47.85.85 1.17 1.116s.654.486 1.04.538c.561.075 1.127-.1 1.547-.479m-.136-2.833c-.129.687-.219 1.166-.318 1.515-.1.355-.187.483-.249.538a.88.88 0 0 1-.703.218c-.083-.011-.226-.068-.51-.304-.279-.232-.624-.576-1.118-1.07L4.269 6.827c-.494-.494-.838-.84-1.07-1.119-.237-.283-.293-.427-.304-.509a.88.88 0 0 1 .217-.703c.056-.062.184-.148.539-.25.349-.098.828-.189 1.515-.317l.879-.165.017-.004c.065-.012.154-.028.24-.06a1 1 0 0 0 .21-.111 1.4 1.4 0 0 0 .185-.163l.012-.013.893-.893c.283-.283.474-.473.632-.607.154-.13.243-.178.31-.2a.88.88 0 0 1 .541 0c.068.022.156.07.31.2.159.134.35.324.632.607l1.452 1.452c.284.284.474.474.608.633.13.153.178.242.2.31a.88.88 0 0 1 0 .54c-.022.068-.07.157-.2.31-.134.159-.324.35-.608.633l-.892.892-.013.013c-.047.047-.11.11-.163.186a1 1 0 0 0-.11.21c-.033.085-.05.173-.062.238l-.003.018z" fill="currentColor"></path></svg>
