<svg width="14" height="14" viewBox="0 0 14 14" fill="none" xmlns="http://www.w3.org/2000/svg" class="text-brand-primary-normal"><path d="m11.249 7.865.988-.988c.613-.614.92-.92 1.035-1.275a1.55 1.55 0 0 0 0-.957c-.115-.354-.422-.661-1.035-1.275L10.63 1.763c-.614-.613-.92-.92-1.275-1.035a1.55 1.55 0 0 0-.957 0c-.354.115-.661.421-1.275 1.035l-.988.988c-.067.067-.1.1-.139.127a.5.5 0 0 1-.11.058 1 1 0 0 1-.183.043l-.972.182c-1.498.281-2.247.422-2.598.81a1.55 1.55 0 0 0-.385 1.246c.07.518.609 1.057 1.686 2.135L4.67 8.586 1.81 11.45a.525.525 0 0 0 .742.742L5.413 9.33l1.235 1.236c1.078 1.077 1.617 1.616 2.135 1.686.452.06.907-.08 1.246-.385.388-.351.529-1.1.81-2.598l.182-.972a1 1 0 0 1 .043-.184.5.5 0 0 1 .057-.11 1 1 0 0 1 .128-.138" fill="currentColor"></path></svg>
